<svg width="20" height="18" viewBox="0 0 20 18" fill="none" xmlns="http://www.w3.org/2000/svg">
<path fill-rule="evenodd" clip-rule="evenodd" d="M9.1667 1.65833C9.22427 1.4758 9.33852 1.31637 9.49287 1.2032C9.64723 1.09002 9.83364 1.02901 10.025 1.02901C10.2164 1.02901 10.4028 1.09002 10.5572 1.2032C10.7116 1.31637 10.8258 1.4758 10.8834 1.65833L12.4334 6.425H17.4334C17.6316 6.4175 17.8269 6.47512 17.9893 6.58903C18.1517 6.70295 18.2723 6.8669 18.3328 7.05585C18.3933 7.24479 18.3902 7.44833 18.3241 7.63538C18.258 7.82242 18.1325 7.98268 17.9667 8.09167L13.9084 11.0333L15.4584 15.8083C15.5197 15.9902 15.5212 16.1869 15.4628 16.3698C15.4043 16.5526 15.289 16.712 15.1336 16.8246C14.9781 16.9372 14.7908 16.9972 14.5988 16.9957C14.4069 16.9943 14.2204 16.9316 14.0667 16.8167L10 13.8417L5.9417 16.7917C5.78796 16.9066 5.60151 16.9693 5.40957 16.9707C5.21764 16.9722 5.03028 16.9122 4.87485 16.7996C4.71942 16.687 4.60406 16.5276 4.54563 16.3448C4.48719 16.1619 4.48874 15.9652 4.55004 15.7833L6.10004 11.0083L2.0417 8.06667C1.87594 7.95768 1.75041 7.79742 1.6843 7.61038C1.61819 7.42334 1.61514 7.21979 1.6756 7.03085C1.73606 6.8419 1.85672 6.67795 2.01914 6.56403C2.18155 6.45012 2.3768 6.3925 2.57504 6.4H7.57504L9.1667 1.65833Z" stroke="#90A3BF" stroke-width="1.5" stroke-linecap="round" stroke-linejoin="round"/>
</svg>
