<svg width="32" height="20" viewBox="0 0 32 20" fill="none" xmlns="http://www.w3.org/2000/svg">
<path d="M20.3255 2.13892H11.6733V17.8611H20.3255V2.13892Z" fill="#FF5F00"/>
<path d="M12.2229 9.99997C12.2229 6.80553 13.7062 3.97219 15.9859 2.13886C14.3104 0.805525 12.1955 -3.05176e-05 9.88821 -3.05176e-05C4.42223 -3.05176e-05 0 4.47219 0 9.99997C0 15.5277 4.42223 20 9.88821 20C12.1955 20 14.3104 19.1944 15.9859 17.8611C13.7062 16.0555 12.2229 13.1944 12.2229 9.99997Z" fill="#EB001B"/>
<path d="M32.0002 10C32.0002 15.5278 27.5779 20 22.112 20C19.8047 20 17.6897 19.1944 16.0142 17.8611C18.3215 16.0278 19.7772 13.1944 19.7772 10C19.7772 6.80556 18.294 3.97222 16.0142 2.13889C17.6897 0.805556 19.8047 0 22.112 0C27.5779 0 32.0002 4.5 32.0002 10Z" fill="#F79E1B"/>
</svg>
